<svg width="17" height="23" viewBox="0 0 17 23" fill="none" xmlns="http://www.w3.org/2000/svg">
<path fill-rule="evenodd" clip-rule="evenodd" d="M9.92179 0.64894C9.15085 -0.216341 7.84849 -0.216307 7.07765 0.649003C6.1346 1.70756 4.39414 3.76122 2.88324 6.10317C1.37562 8.44003 -0.0242924 11.1015 0.000319783 13.9924C0.00248822 14.2481 0.0155389 14.607 0.058298 15.0351C0.143227 15.8855 0.348358 17.0397 0.839164 18.2092C1.33213 19.3839 2.12331 20.5962 3.38544 21.5114C4.65332 22.4308 6.32711 23 8.49972 23C10.6723 23 12.3461 22.4308 13.6141 21.5114C14.8762 20.5962 15.6675 19.384 16.1606 18.2093C16.6514 17.0398 16.8567 15.8855 16.9416 15.0351C16.9844 14.6071 16.9975 14.2483 16.9997 13.9925C17.0245 11.1016 15.6242 8.43988 14.1166 6.10311C12.6055 3.76114 10.8649 1.70749 9.92179 0.64894ZM4.54165 7.26576C5.94763 5.08645 7.58038 3.14927 8.49972 2.11428C9.41915 3.14926 11.0521 5.08644 12.4582 7.26576C13.7313 9.23908 15.0222 11.5215 15.0012 13.9739C14.9995 14.1739 14.9891 14.4662 14.9539 14.8193C14.8827 15.5314 14.7131 16.4605 14.3296 17.3742C13.9482 18.2829 13.3654 19.154 12.4727 19.8012C11.586 20.4443 10.3243 20.9167 8.49972 20.9167C6.67514 20.9167 5.41354 20.4443 4.52676 19.8012C3.63424 19.154 3.05149 18.2829 2.67019 17.3742C2.28672 16.4605 2.11722 15.5315 2.0461 14.8194C2.01084 14.4662 2.00049 14.174 1.9988 13.974C1.97793 11.5216 3.26849 9.2392 4.54165 7.26576Z" fill="#303030"/>
<path d="M4.54165 7.26576C5.94763 5.08645 7.58038 3.14927 8.49972 2.11428C9.41915 3.14926 11.0521 5.08644 12.4582 7.26576C13.7313 9.23908 15.0222 11.5215 15.0012 13.9739C14.9995 14.1739 14.9891 14.4662 14.9539 14.8193C14.8827 15.5314 14.7131 16.4605 14.3296 17.3742C13.9482 18.2829 13.3654 19.154 12.4727 19.8012C11.586 20.4443 10.3243 20.9167 8.49972 20.9167C6.67514 20.9167 5.41354 20.4443 4.52676 19.8012C3.63424 19.154 3.05149 18.2829 2.67019 17.3742C2.28672 16.4605 2.11722 15.5315 2.0461 14.8194C2.01084 14.4662 2.00049 14.174 1.9988 13.974C1.97793 11.5216 3.26849 9.2392 4.54165 7.26576Z" fill="#303030"/>
</svg>
