<svg width="46" height="46" viewBox="0 0 46 46" fill="none" xmlns="http://www.w3.org/2000/svg">
<circle cx="23" cy="23" r="23" fill="#D9D9D9"/>
<path fill-rule="evenodd" clip-rule="evenodd" d="M30.5469 32.2H15.4539C14.6416 32.2 14.0417 31.3984 14.3481 30.6613C15.7697 27.2527 19.1095 25.3 22.9998 25.3C26.8914 25.3 30.2311 27.2527 31.6528 30.6613C31.9592 31.3984 31.3593 32.2 30.5469 32.2ZM18.3042 18.4C18.3042 15.8631 20.4113 13.8 22.9998 13.8C25.5895 13.8 27.6955 15.8631 27.6955 18.4C27.6955 20.9369 25.5895 23 22.9998 23C20.4113 23 18.3042 20.9369 18.3042 18.4ZM34.449 31.7814C33.5956 27.9185 30.9261 25.0677 27.4126 23.7739C29.2744 22.3054 30.3603 19.9306 29.9611 17.3304C29.4986 14.314 26.9371 11.9002 23.8451 11.5483C19.5767 11.0618 15.9563 14.3163 15.9563 18.4C15.9563 20.5735 16.9847 22.5101 18.5883 23.7739C15.0736 25.0677 12.4052 27.9185 11.5506 31.7814C11.2407 33.1855 12.3958 34.5 13.8621 34.5H32.1376C33.605 34.5 34.7601 33.1855 34.449 31.7814Z" fill="white"/>
<path d="M30.5469 32.2H15.4539C14.6416 32.2 14.0417 31.3984 14.3481 30.6613C15.7697 27.2527 19.1095 25.3 22.9998 25.3C26.8914 25.3 30.2311 27.2527 31.6528 30.6613C31.9592 31.3984 31.3593 32.2 30.5469 32.2Z" fill="white"/>
<path d="M18.3042 18.4C18.3042 15.8631 20.4113 13.8 22.9998 13.8C25.5895 13.8 27.6955 15.8631 27.6955 18.4C27.6955 20.9369 25.5895 23 22.9998 23C20.4113 23 18.3042 20.9369 18.3042 18.4Z" fill="white"/>
</svg>
